# xmcd
#
# Track frame offsets:
#	150
#	20225
#	41294
#	64672
#	93106
#	115654
#	135224
#	160304
#	186996
#	206337
#
# Disc length: 3059 seconds
#
# Revision: 0
# Processed by: cddbd v1.4PL0 Copyright (c) Steve Scherf et al.
# Submitted via: dBpowerAMP V4.0
#
DISCID=7a0bf10a
DTITLE=Farhad Darya - Salaam Afghanistan
DYEAR=2003
DGENRE=Big Band
TTITLE0=Salaam Afghanistan
TTITLE1=Gul Sanam
TTITLE2=Sheeshta Baashom
TTITLE3=Peeya Taa
TTITLE4=Pag Beeraar
TTITLE5=Yakdana Gul
TTITLE6=Babulaal
TTITLE7=Maadaraam
TTITLE8=Sheen Raket
TTITLE9=Instrumental
EXTD=Salaam Afghanistan
EXTT0=
EXTT1=
EXTT2=
EXTT3=
EXTT4=
EXTT5=
EXTT6=
EXTT7=
EXTT8=
EXTT9=
PLAYORDER=
